<svg width="24" height="22" viewBox="0 0 24 22" fill="none" xmlns="http://www.w3.org/2000/svg">
<path d="M13.2656 5.49218C13.2656 4.09644 12.1301 2.96094 10.7344 2.96094C9.33863 2.96094 8.20312 4.09644 8.20312 5.49218C8.20312 6.88793 9.33863 8.02343 10.7344 8.02343C12.1301 8.02343 13.2656 6.88793 13.2656 5.49218ZM9.14062 5.49218C9.14062 4.61337 9.85556 3.89844 10.7344 3.89844C11.6132 3.89844 12.3281 4.61337 12.3281 5.49218C12.3281 6.371 11.6132 7.08593 10.7344 7.08593C9.85556 7.08593 9.14062 6.371 9.14062 5.49218Z" fill="white"/>
<path d="M6.64372 11.5524C7.24602 11.2455 7.69273 10.7225 7.90166 10.0796C8.11053 9.43673 8.05658 8.75095 7.74969 8.14871C7.4428 7.54641 6.91972 7.09969 6.27688 6.89077C5.63394 6.68185 4.9482 6.73585 4.34595 7.04274C3.74366 7.34963 3.29694 7.87271 3.08802 8.51555C2.87914 9.15844 2.93309 9.84422 3.23999 10.4465C3.54688 11.0488 4.06995 11.4955 4.7128 11.7044C4.97023 11.788 5.23447 11.8295 5.49748 11.8295C5.89138 11.8296 6.28255 11.7365 6.64372 11.5524ZM5.00249 10.8128C4.59777 10.6813 4.26847 10.4001 4.07525 10.0209C3.88203 9.64172 3.84805 9.21 3.97958 8.80528C4.11106 8.40056 4.39231 8.07127 4.77148 7.87805C4.99888 7.76218 5.24511 7.70358 5.49313 7.70358C5.65869 7.70358 5.82509 7.72974 5.98714 7.78238C6.39186 7.91386 6.72116 8.19511 6.91438 8.57428C7.10759 8.95345 7.14158 9.38517 7.01005 9.78989C6.87856 10.1946 6.59731 10.5239 6.21814 10.7171C5.83892 10.9103 5.4072 10.9443 5.00249 10.8128Z" fill="white"/>
<path d="M6.00924 17.5032C6.45756 17.8289 6.97787 17.9857 7.49363 17.9857C8.27701 17.9857 9.05007 17.6241 9.5447 16.9432C9.9421 16.3963 10.1027 15.7273 9.9969 15.0595C9.8911 14.3917 9.53166 13.8052 8.98468 13.4078C8.4377 13.0104 7.76884 12.8497 7.10096 12.9556C6.43318 13.0613 5.84659 13.4208 5.44923 13.9678C4.62896 15.0968 4.88016 16.6829 6.00924 17.5032ZM6.20776 14.5188C6.45793 14.1744 6.82726 13.9481 7.24768 13.8815C7.3321 13.8682 7.41652 13.8615 7.50038 13.8615C7.83413 13.8615 8.15851 13.9663 8.43371 14.1663C9.14462 14.6828 9.30277 15.6813 8.78626 16.3922C8.26974 17.1031 7.27121 17.2613 6.56031 16.7448C5.8494 16.2283 5.69124 15.2297 6.20776 14.5188Z" fill="white"/>
<path d="M13.9764 17.9857C14.4922 17.9857 15.0126 17.8288 15.4609 17.5032C16.5899 16.6828 16.8411 15.0968 16.0208 13.9677C15.6234 13.4208 15.0368 13.0613 14.3691 12.9556C13.7013 12.8498 13.0324 13.0104 12.4854 13.4078C11.9384 13.8051 11.5789 14.3918 11.4732 15.0595C11.3674 15.7272 11.528 16.3962 11.9254 16.9432C12.4201 17.6241 13.1929 17.9857 13.9764 17.9857ZM13.0364 14.1662C13.3807 13.916 13.8018 13.8148 14.2224 13.8815C14.6428 13.9481 15.0121 14.1744 15.2623 14.5188C15.7788 15.2297 15.6207 16.2282 14.9097 16.7447C14.1988 17.2613 13.2003 17.1031 12.6838 16.3922C12.1673 15.6813 12.3255 14.6827 13.0364 14.1662Z" fill="white"/>
<path d="M15.1913 6.89069C14.5484 7.09962 14.0253 7.54633 13.7185 8.14863C13.4116 8.75093 13.3577 9.43667 13.5665 10.0796C13.7755 10.7224 14.2222 11.2455 14.8245 11.5524C15.1856 11.7364 15.5768 11.8295 15.9707 11.8295C16.2337 11.8295 16.4981 11.788 16.7554 11.7044C17.3983 11.4955 17.9214 11.0487 18.2282 10.4464C18.5351 9.84415 18.5891 9.15842 18.3802 8.51552C18.1713 7.87263 17.7245 7.34955 17.1222 7.04271C16.52 6.73582 15.8342 6.68191 15.1913 6.89069ZM16.6967 7.87802C17.0758 8.07124 17.3571 8.40049 17.4886 8.80526C17.6201 9.20998 17.5861 9.6417 17.3929 10.0209C17.1997 10.4 16.8704 10.6813 16.4657 10.8128C16.0609 10.9443 15.6292 10.9103 15.2501 10.7171C14.8709 10.5239 14.5896 10.1946 14.4581 9.78987C14.3266 9.38515 14.3606 8.95343 14.5538 8.57426C14.747 8.19509 15.0763 7.91384 15.4811 7.78235C15.6431 7.72966 15.8095 7.70355 15.9751 7.70355C16.223 7.70355 16.4693 7.76215 16.6967 7.87802Z" fill="white"/>
<path d="M12.3418 11C12.3418 10.1137 11.6208 9.39258 10.7344 9.39258C9.84803 9.39258 9.12695 10.1137 9.12695 11C9.12695 11.8864 9.84803 12.6075 10.7344 12.6075C11.6208 12.6075 12.3418 11.8864 12.3418 11ZM10.0645 11C10.0645 10.6306 10.365 10.3301 10.7344 10.3301C11.1038 10.3301 11.4043 10.6306 11.4043 11C11.4043 11.3694 11.1038 11.67 10.7344 11.67C10.365 11.67 10.0645 11.3694 10.0645 11Z" fill="white"/>
<path d="M23.8627 19.7073C23.3326 19.1772 22.6279 18.8853 21.8783 18.8853C21.1287 18.8853 20.424 19.1772 19.8939 19.7073C19.1913 20.4099 18.2571 20.7969 17.2634 20.7969H15.1344C16.3078 20.2693 17.3877 19.5273 18.3247 18.5903C20.3522 16.5629 21.4688 13.8673 21.4688 11C21.4688 8.90281 20.8638 6.87102 19.7192 5.12427C19.5774 4.9077 19.2868 4.84719 19.0702 4.98908C18.8537 5.13097 18.7932 5.42155 18.9351 5.63806C19.9793 7.23172 20.5312 9.08586 20.5312 11C20.5312 16.402 16.1364 20.7969 10.7344 20.7969C5.33236 20.7969 0.9375 16.402 0.9375 11C0.9375 5.59798 5.33236 1.20312 10.7344 1.20312C12.6517 1.20312 14.5086 1.75681 16.104 2.80438C16.3204 2.9465 16.611 2.88627 16.7531 2.6698C16.8952 2.45338 16.835 2.1628 16.6185 2.02067C14.8698 0.872516 12.8351 0.265625 10.7344 0.265625C7.86713 0.265625 5.17148 1.38219 3.14405 3.40967C1.11661 5.43716 0 8.13275 0 11C0 13.8673 1.11656 16.5629 3.14405 18.5904C5.17148 20.6178 7.86713 21.7344 10.7344 21.7344H17.2634C18.5075 21.7344 19.6771 21.2499 20.5568 20.3702C20.9098 20.0172 21.3791 19.8228 21.8783 19.8228C22.3775 19.8228 22.8468 20.0172 23.1998 20.3702C23.3828 20.5532 23.6796 20.5532 23.8627 20.3702C24.0458 20.1871 24.0458 19.8903 23.8627 19.7073Z" fill="white"/>
<path d="M17.9961 4.21242C18.1194 4.21242 18.2403 4.16273 18.3275 4.07555C18.4147 3.98789 18.4648 3.86742 18.4648 3.74414C18.4648 3.62039 18.4147 3.49992 18.3275 3.41227C18.2403 3.32508 18.1194 3.27539 17.9961 3.27539C17.8728 3.27539 17.7519 3.32508 17.6647 3.41227C17.5775 3.49992 17.5273 3.62039 17.5273 3.74414C17.5273 3.86742 17.5775 3.98836 17.6647 4.07555C17.7519 4.16273 17.8728 4.21242 17.9961 4.21242Z" fill="white"/>
</svg>
